<?xml version="1.0" encoding="utf-8"?>
<!-- Generator: Adobe Illustrator 16.0.4, SVG Export Plug-In . SVG Version: 6.00 Build 0)  -->
<!DOCTYPE svg PUBLIC "-//W3C//DTD SVG 1.1//EN" "http://www.w3.org/Graphics/SVG/1.1/DTD/svg11.dtd">
<svg version="1.1" id="Art" xmlns="http://www.w3.org/2000/svg" xmlns:xlink="http://www.w3.org/1999/xlink" x="0px" y="0px"
	 width="132.75px" height="74.75px" viewBox="-4.38 -3.805 132.75 74.75" enable-background="new -4.38 -3.805 132.75 74.75"
	 xml:space="preserve">
<g>
	<rect y="-1" fill="none" width="225.24" height="128.394"/>
</g>
<g>
	<path fill="#0018A8" d="M21.956,31.125h-1.101l-2.82,7.963h1.101c2.143,0,2.599-0.534,3.82-3.981
		C24.175,31.662,24.097,31.125,21.956,31.125z M35.174,35.106c-1.219,3.447-1.37,4.374,0.328,4.374c1.695,0,2.202-0.927,3.422-4.374
		c1.221-3.444,1.37-4.374-0.325-4.374C36.902,30.733,36.396,31.662,35.174,35.106z M52.165,20.27L18.201,9.248L7.177,43.211
		l33.964,11.022l1.713-5.279l-0.696-9.58c-1.663,1.649-3.978,2.355-7.455,2.355c-5.651,0-6.929-1.855-5.24-6.623
		c1.688-4.766,4.279-6.621,9.932-6.621c0.734,0,1.391,0.033,1.98,0.098l-0.359-4.947l10.298-0.748L52.165,20.27z M28.667,35.106
		c-1.182,3.338-2.585,6.374-8.979,6.374h-8.033l4.514-12.745h8.033C30.597,28.735,29.849,31.768,28.667,35.106z"/>
	<path fill="#00AD83" d="M85.38,31.342h-0.06l-3.432,5.409h3.092L85.38,31.342z M78.631,17.282l-2.184,19.799l6.345-8.346h6.962
		l0.662,12.745h-5.892l0.225-2.231h-4.402l-1.355,2.231h-3.031l-1.246,11.294l35.49,3.916l3.917-35.492L78.631,17.282z
		 M106.094,41.48h-6.069l-0.899-7.872h-0.06l-2.79,7.872h-5.175l4.514-12.745h6.187l0.789,7.854h0.06l2.78-7.854h5.179
		L106.094,41.48z"/>
	<path fill="#0088CE" d="M54.596,30.733c-1.695,0-2.202,0.929-3.422,4.374c-1.22,3.447-1.371,4.374,0.325,4.374
		c1.695,0,2.203-0.927,3.423-4.374C56.142,31.662,56.293,30.733,54.596,30.733z M78.968,53.243l-4.252-0.469l1.246-11.294h-2.86
		l3.345-4.399l0.812-7.36l-0.629-8.668l-35.613,2.584l0.359,4.946c3.95,0.436,4.729,2.378,3.26,6.524
		c-0.649,1.836-1.436,3.235-2.477,4.268l1.443,19.874l35.613-2.585L78.968,53.243z M50.703,41.729c-5.652,0-6.93-1.855-5.242-6.623
		c1.688-4.766,4.279-6.621,9.932-6.621c5.653,0,6.929,1.855,5.242,6.621C58.946,39.874,56.355,41.729,50.703,41.729z M59.962,38.141
		l0.158-0.446h5.355l-0.107,0.301c-0.386,1.091,0.219,1.483,1.29,1.483c1.13,0,1.975-0.537,2.22-1.231
		c0.892-2.518-8.237-1.267-6.639-5.783c0.91-2.571,3.701-3.98,8.372-3.98c4.818,0,6.449,1.195,5.48,3.927h-5.176l0.107-0.304
		c0.266-0.749-0.019-1.375-1.09-1.375c-1.189,0-1.921,0.554-2.124,1.125c-0.891,2.517,8.588,1.287,6.939,5.944
		c-0.963,2.714-4.039,3.928-8.918,3.928C61.25,41.729,59.026,40.783,59.962,38.141z"/>
</g>
</svg>
