<svg version="1.1" xmlns="http://www.w3.org/2000/svg" xmlns:xlink="http://www.w3.org/1999/xlink" x="0px" y="0px"
	 width="172px" height="38px" viewBox="-16.125 18.875 172 38" xml:space="preserve">
<path fill="#FFFFFF" d="M11.563,27.947H-0.492l-6.771,19.125H4.79c9.596,0,11.701-4.555,13.475-9.563
	C20.04,32.501,21.159,27.947,11.563,27.947z M9.694,37.509c-1.832,5.171-2.52,5.974-5.734,5.974h-1.65l4.23-11.945h1.652
	C11.407,31.536,11.522,32.34,9.694,37.509z M34.362,27.573c-8.484,0-12.371,2.786-14.904,9.936
	c-2.533,7.153-0.617,9.938,7.865,9.938c8.48,0,12.369-2.785,14.9-9.938C44.758,30.359,42.842,27.573,34.362,27.573z M33.655,37.509
	c-1.832,5.171-2.592,6.562-5.139,6.562c-2.543,0-2.318-1.391-0.486-6.562c1.83-5.169,2.592-6.562,5.135-6.562
	C35.711,30.947,35.485,32.34,33.655,37.509z M58.366,27.573c-8.482,0-12.369,2.786-14.902,9.936
	c-2.533,7.153-0.619,9.938,7.863,9.938c8.48,0,12.369-2.785,14.902-9.938C68.762,30.359,66.848,27.573,58.366,27.573z
	 M57.659,37.509c-1.83,5.171-2.592,6.562-5.137,6.562s-2.318-1.391-0.488-6.562c1.83-5.169,2.594-6.562,5.137-6.562
	C59.715,30.947,59.489,32.34,57.659,37.509z M87.41,41.555c2.477-6.99-11.748-5.144-10.412-8.92
	c0.305-0.855,1.402-1.688,3.189-1.688c1.605,0,2.031,0.938,1.635,2.062l-0.162,0.457h7.768c1.451-4.099-0.994-5.893-8.227-5.893
	c-7.006,0-11.195,2.114-12.561,5.972c-2.398,6.777,11.299,4.9,9.963,8.68c-0.371,1.043-1.639,1.848-3.334,1.848
	c-1.607,0-2.516-0.59-1.936-2.225l0.16-0.455h-8.035l-0.236,0.672c-1.404,3.963,1.931,5.384,8.808,5.384
	C81.35,47.447,85.967,45.625,87.41,41.555z M99.48,27.947L84.939,47.072h8.838l2.033-3.35h6.607l-0.338,3.35h8.838l-0.994-19.125
	H99.48z M102.766,39.975h-4.645l5.15-8.115h0.092L102.766,39.975z M133.449,27.947l-4.172,11.785h-0.09l-1.184-11.785h-9.285
	l-6.773,19.125h7.768l4.186-11.812h0.088l1.354,11.812h9.105l6.773-19.125H133.449z"/>
</svg>
