<svg version="1.1" 
	xmlns="http://www.w3.org/2000/svg" xmlns:xlink="http://www.w3.org/1999/xlink" x="0px" y="0px"
	width="1119px" 
	height="40px" 
	viewBox="67 539 1119 40"
	xml:space="preserve">
<style type="text/css">
<![CDATA[
	.black {fill:#1E1E1E;}
	.red {fill:#FF0000;}
	.white {fill:#FFFFFF;}
	path {fill:none;stroke:#FFFFFF;stroke-width:1;stroke-miterlimit:10;}
]]>
</style>
	<polygon class="white" points="452.75,569.06 442.64,558.7 451.77,549.35 450.16,547.8 441.02,557.06 431.43,547.25 
		429.82,548.9 439.4,558.7 428.75,569.6 430.36,571.25 441.02,560.34 451.23,570.7 "/>
	<path d="M99.75,549.33c-1.12,0.48-2.34,0.86-3.65,1.06c1.31-0.77,2.34-2.12,2.81-3.66
		c-1.21,0.77-2.62,1.25-4.03,1.64c-1.12-1.25-2.81-2.12-4.68-2.12c-3.56,0-6.37,2.89-6.37,6.55c0,0.48,0.1,0.96,0.19,1.44
		c-5.34-0.29-10.03-2.89-13.12-6.84c-0.56,0.96-0.84,2.12-0.84,3.28c0,2.31,1.12,4.33,2.81,5.48c-1.03,0-2.06-0.28-2.9-0.76v0.09
		c0,3.18,2.25,5.77,5.15,6.45c-0.56,0.19-1.12,0.19-1.68,0.19c-0.38,0-0.85,0-1.22-0.1c0.84,2.6,3.18,4.53,5.99,4.53
		c-2.15,1.73-4.96,2.79-7.96,2.79c-0.56,0-1.03,0-1.5-0.1c2.81,1.83,6.18,2.98,9.74,2.98c11.71,0,18.17-10.02,18.17-18.68
		c0-0.29,0-0.58,0-0.87C97.79,551.83,98.91,550.68,99.75,549.33z"/>
	<path d="M143.75,573.18c0-0.1,0-0.2,0-0.3c0.3-5.64,0.7-11.19,1-16.83c0-0.2,0.1-0.4,0.3-0.4
		c1.2-0.3,2.51-0.59,3.72-0.99c0.2,0,0.3,0,0.4,0.1c0.4,0.49,0.8,0.89,1.2,1.39c-1.3,0.4-2.61,0.69-3.81,0.99
		c0,0.4,0,0.69-0.1,0.99c-0.1,1.49-0.2,2.97-0.3,4.46c0,0.29,0.1,0.49,0.4,0.49c0.1,0,0.2,0.1,0.3,0.1c-0.2,0.59-0.3,1.09-0.5,1.58
		c0,0.1-0.1,0.1-0.3,0.2c-0.1,1.88-0.2,3.76-0.3,5.74c8.03-2.08,15.96-4.26,23.99-6.34c-1-1.49-2.01-2.97-3.01-4.46
		c-0.1,0-0.2,0-0.3,0c-0.4-0.3-0.8-0.49-1.2-0.79c0.1-0.2,0.2-0.4,0.3-0.69c0-0.1,0-0.2,0-0.3c-1.1-1.68-2.31-3.47-3.41-5.15
		c-1.3,0.29-2.51,0.69-3.91,0.99c0.1-0.59,0.3-1.09,0.3-1.69c0-0.29,0.2-0.4,0.5-0.49c1.2-0.3,2.41-0.59,3.61-0.99
		c0.2-0.1,0.3,0,0.5,0.2c3.11,4.75,6.32,9.41,9.43,14.06c0.1,0.1,0.1,0.2,0.2,0.2v0.1C163.22,568.22,153.48,570.7,143.75,573.18
		C143.85,573.27,143.75,573.27,143.75,573.18z"/>
	<path d="M155.39,558.72c-0.6-0.69-1.2-1.29-1.71-1.88c-1.51-1.59-3.01-3.27-4.42-4.85c-2.21-2.48-1.3-6.24,1.81-7.43
		c2.61-0.99,5.52,0.5,6.22,3.07c0.2,0.79,0.2,1.48,0.1,2.27c-0.6,2.87-1.2,5.74-1.91,8.71
		C155.49,558.62,155.49,558.62,155.39,558.72z M153.48,551.49c1.51-0.4,2.41-1.88,2.01-3.37c-0.4-1.48-1.91-2.38-3.41-1.98
		c-1.51,0.4-2.41,1.88-2.01,3.37C150.47,551,151.98,551.88,153.48,551.49z"/>
	<path d="M150.78,565.25c-0.81,0.1-1.51,0.2-2.21,0.2c0-0.69,0-1.29,0-1.88c0.61-0.1,1.11-0.1,1.71-0.2
		C150.47,563.97,150.57,564.56,150.78,565.25z"/>
	<path d="M154.79,560.7c0.5-0.49,0.9-0.89,1.41-1.39c0.4,0.5,0.8,0.89,1.3,1.39c-0.5,0.5-0.9,0.89-1.3,1.39
		C155.69,561.59,155.29,561.09,154.79,560.7z"/>
	<path d="M163.72,558.62c-0.61,0-1.11-0.1-1.71-0.1c0-0.59-0.1-1.19-0.1-1.88c0.8,0.1,1.5,0.1,2.21,0.2
		C164.02,557.43,163.82,558.03,163.72,558.62z"/>
	<path d="M157.8,558.03c0.6-0.3,1.3-0.59,1.91-0.99c0.2,0.59,0.4,1.19,0.6,1.78c-0.5,0.3-1,0.49-1.6,0.79
		C158.5,559.11,158.2,558.52,157.8,558.03z"/>
	<path d="M154.59,563.37c-0.6,0.4-1.2,0.69-1.8,1.09c-0.3-0.59-0.6-1.09-0.9-1.68c0.5-0.3,1-0.59,1.51-0.99
		C153.79,562.28,154.19,562.78,154.59,563.37z"/>
	<path d="M366.85,548.65c0.55,0,1.02,0.2,1.4,0.58l10.03,10.17c0.38,0.41,0.57,0.88,0.57,1.42
		c0,0.53-0.19,1-0.57,1.41l-1.16,1.17c-0.39,0.39-0.86,0.59-1.4,0.59c-0.54,0-1.01-0.2-1.4-0.59l-4.51-4.58v11
		c0,0.54-0.19,0.98-0.58,1.32c-0.39,0.34-0.85,0.51-1.39,0.51h-1.97c-0.55,0-1.01-0.17-1.39-0.51c-0.39-0.34-0.58-0.78-0.58-1.32
		v-11l-4.53,4.58c-0.37,0.39-0.83,0.59-1.39,0.59s-1.02-0.2-1.38-0.59l-1.16-1.17c-0.39-0.4-0.58-0.87-0.58-1.41
		c0-0.55,0.2-1.03,0.58-1.42l10.03-10.17C365.83,548.85,366.29,548.65,366.85,548.65z"/>
	<path class="st2" d="M247.78,568.49c0,0.71-0.2,1.37-0.52,1.95L237.04,559l10.11-8.85c0.39,0.62,0.63,1.36,0.63,2.15V568.49
		L247.78,568.49z M231.6,561.08l14.06-12.31c-0.58-0.31-1.23-0.51-1.93-0.51h-24.27c-0.7,0-1.35,0.2-1.93,0.51L231.6,561.08z
		M235.52,560.34l-3.26,2.85c-0.19,0.17-0.43,0.25-0.66,0.25c-0.24,0-0.48-0.08-0.67-0.25l-3.26-2.85l-10.35,11.58
		c0.62,0.39,1.35,0.62,2.13,0.62h24.27c0.79,0,1.51-0.23,2.13-0.62L235.52,560.34z M216.04,550.16c-0.39,0.62-0.63,1.36-0.63,2.15
		v16.18c0,0.71,0.2,1.37,0.52,1.95L226.15,559L216.04,550.16z"/>
	<path d="M300.89,544.47c-0.33-1.22-0.65-2.34-0.87-3.45c0.87-0.22,1.74-0.45,2.71-0.78
		c0,0.11,0.11,0.33,0.11,0.44c2.6,9.89,5.21,19.79,7.82,29.68c0.32,1.22-0.22,2.33-1.52,2.67c-3.8,1-7.49,2.11-11.29,3.11
		c-1.3,0.33-2.28-0.22-2.6-1.56c-2.17-8.11-4.23-16.34-6.4-24.57c-0.32-1.33,0.22-2.34,1.52-2.67c3.37-0.89,6.73-1.89,10.1-2.78
		C300.46,544.59,300.67,544.47,300.89,544.47z M301.97,548.48c-3.36,0.89-6.73,1.89-9.98,2.78c0.87,3.22,1.74,6.45,2.5,9.67
		c3.36-0.89,6.73-1.78,9.99-2.78C303.6,554.92,302.84,551.7,301.97,548.48z M301.76,563.71c-0.22-0.67-0.33-1.22-0.54-1.89
		c-0.76,0.22-1.52,0.44-2.28,0.67c0.21,0.67,0.32,1.22,0.54,1.89C300.24,564.15,301,563.93,301.76,563.71z M300.35,567.82
		c0.76-0.22,1.52-0.45,2.28-0.67c-0.11-0.67-0.33-1.22-0.43-1.89c-0.76,0.22-1.52,0.45-2.28,0.67
		C300.02,566.59,300.24,567.15,300.35,567.82z M303.6,570.6c-0.22-0.67-0.33-1.22-0.54-1.89c-0.76,0.22-1.52,0.45-2.28,0.67
		c0.22,0.67,0.33,1.22,0.54,1.89C302.08,571.04,302.84,570.82,303.6,570.6z M295.57,565.37c0.76-0.22,1.52-0.44,2.28-0.67
		c-0.11-0.67-0.33-1.22-0.43-1.89c-0.76,0.22-1.52,0.44-2.28,0.67C295.25,564.15,295.46,564.82,295.57,565.37z M305.23,560.81
		c-0.76,0.22-1.52,0.44-2.28,0.67c0.11,0.67,0.33,1.22,0.43,1.89c0.76-0.22,1.52-0.44,2.28-0.67
		C305.45,562.04,305.34,561.48,305.23,560.81z M298.39,566.37c-0.76,0.22-1.52,0.44-2.28,0.67c0.11,0.67,0.32,1.22,0.43,1.89
		c0.76-0.22,1.52-0.44,2.28-0.67C298.61,567.59,298.5,567.04,298.39,566.37z M304.25,566.71c0.76-0.22,1.52-0.44,2.28-0.67
		c-0.11-0.67-0.33-1.22-0.44-1.89c-0.76,0.22-1.52,0.44-2.28,0.67C303.93,565.48,304.15,566.15,304.25,566.71z M297.42,572.38
		c0.76-0.22,1.52-0.44,2.28-0.67c-0.11-0.67-0.33-1.22-0.44-1.78c-0.76,0.22-1.52,0.44-2.28,0.67
		C297.09,571.15,297.31,571.71,297.42,572.38z M305.12,570.26c0.76-0.22,1.51-0.44,2.28-0.67c-0.11-0.67-0.32-1.22-0.54-1.89
		c-0.76,0.22-1.52,0.44-2.28,0.67C304.8,569.04,305.01,569.6,305.12,570.26z"/>
	<path class="white" d="M751.64,549.63h-12.1l-6.8,19.24h12.09c9.63,0,11.74-4.58,13.52-9.62
		C760.15,554.21,761.27,549.63,751.64,549.63z M749.77,559.25c-1.84,5.2-2.53,6.01-5.76,6.01h-1.66l4.24-12.02h1.66
		C751.49,553.24,751.6,554.05,749.77,559.25z M774.52,549.25c-8.51,0-12.41,2.8-14.96,10c-2.54,7.2-0.62,10,7.89,10
		s12.41-2.8,14.95-10C784.95,552.05,783.03,549.25,774.52,549.25z M773.81,559.25c-1.84,5.2-2.6,6.6-5.16,6.6
		c-2.55,0-2.33-1.4-0.49-6.6c1.84-5.2,2.6-6.6,5.15-6.6C775.87,552.64,775.65,554.05,773.81,559.25z M798.61,549.25
		c-8.51,0-12.41,2.8-14.96,10c-2.54,7.2-0.62,10,7.89,10c8.51,0,12.41-2.8,14.96-10C809.04,552.05,807.12,549.25,798.61,549.25z
		M797.9,559.25c-1.84,5.2-2.6,6.6-5.15,6.6s-2.33-1.4-0.49-6.6c1.84-5.2,2.6-6.6,5.15-6.6C799.96,552.64,799.74,554.05,797.9,559.25
		z M827.75,563.32c2.49-7.03-11.79-5.18-10.45-8.98c0.31-0.86,1.41-1.7,3.2-1.7c1.61,0,2.04,0.94,1.64,2.08l-0.16,0.46h7.79
		c1.46-4.12-1-5.93-8.25-5.93c-7.03,0-11.23,2.13-12.61,6.01c-2.41,6.82,11.34,4.93,10,8.73c-0.37,1.05-1.64,1.86-3.35,1.86
		c-1.61,0-2.52-0.59-1.94-2.24l0.16-0.46h-8.06l-0.24,0.68c-1.41,3.99,1.94,5.42,8.84,5.42
		C821.67,569.25,826.31,567.42,827.75,563.32z M839.87,549.63l-14.59,19.24h8.87l2.04-3.37h6.63l-0.34,3.37h8.87l-1-19.24H839.87z
		M843.16,561.73h-4.66l5.17-8.17h0.09L843.16,561.73z M873.95,549.63l-4.19,11.86h-0.09l-1.19-11.86h-9.32l-6.8,19.24h7.79
		l4.2-11.89h0.09l1.36,11.89h9.14l6.8-19.24H873.95z"/>
	<path class="black" d="M565.64,549.63h-12.1l-6.8,19.24h12.09c9.63,0,11.74-4.58,13.52-9.62
		C574.15,554.21,575.27,549.63,565.64,549.63z M563.77,559.25c-1.84,5.2-2.53,6.01-5.76,6.01h-1.66l4.24-12.02h1.66
		C565.49,553.24,565.6,554.05,563.77,559.25z M588.52,549.25c-8.51,0-12.41,2.8-14.96,10c-2.54,7.2-0.62,10,7.89,10
		s12.41-2.8,14.95-10C598.95,552.05,597.03,549.25,588.52,549.25z M587.81,559.25c-1.84,5.2-2.6,6.6-5.16,6.6
		c-2.55,0-2.33-1.4-0.49-6.6c1.84-5.2,2.6-6.6,5.15-6.6C589.87,552.64,589.65,554.05,587.81,559.25z M612.61,549.25
		c-8.51,0-12.41,2.8-14.96,10c-2.54,7.2-0.62,10,7.89,10c8.51,0,12.41-2.8,14.96-10C623.04,552.05,621.12,549.25,612.61,549.25z
		M611.9,559.25c-1.84,5.2-2.6,6.6-5.15,6.6s-2.33-1.4-0.49-6.6c1.84-5.2,2.6-6.6,5.15-6.6C613.96,552.64,613.74,554.05,611.9,559.25
		z M641.75,563.32c2.49-7.03-11.79-5.18-10.45-8.98c0.3-0.86,1.41-1.7,3.2-1.7c1.61,0,2.04,0.94,1.64,2.08l-0.16,0.46h7.79
		c1.46-4.12-1-5.93-8.25-5.93c-7.03,0-11.23,2.13-12.61,6.01c-2.41,6.82,11.34,4.93,10,8.73c-0.37,1.05-1.64,1.86-3.35,1.86
		c-1.61,0-2.52-0.59-1.94-2.24l0.16-0.46h-8.06l-0.24,0.68c-1.41,3.99,1.94,5.42,8.84,5.42
		C635.67,569.25,640.31,567.42,641.75,563.32z M653.87,549.63l-14.59,19.24h8.87l2.04-3.37h6.63l-0.34,3.37h8.87l-1-19.24H653.87z
		M657.16,561.73h-4.66l5.17-8.17h0.09L657.16,561.73z M687.95,549.63l-4.19,11.86h-0.09l-1.19-11.86h-9.32l-6.8,19.24h7.79
		l4.2-11.89h0.09l1.36,11.89h9.14l6.8-19.24H687.95z"/>
</svg>
