<?xml version="1.0" encoding="utf-8"?>
<svg version="1.1" id="Layer_1" xmlns="http://www.w3.org/2000/svg" xmlns:xlink="http://www.w3.org/1999/xlink" x="0px" y="0px"
	 width="80px" height="80px" viewBox="0 0 80 80" enable-background="new 0 0 80 80" xml:space="preserve">
<path id="video-5-icon" fill="#444444" d="M38.47,29.15l26.18-5.2l-0.01-0.09L62.89,15l-44.11,8.76C16.59,24.2,15,26.13,15,28.37
	c0,1.99,0,29.49,0,29.49C15,61.8,18.19,65,22.12,65h35.77c3.92,0,7.12-3.2,7.12-7.14V29.25v-0.1H38.47z M60.15,57.86
	c0,1.26-1.02,2.27-2.27,2.27H22.12c-1.25,0-2.26-1.02-2.26-2.27V40.7h40.3V57.86z M50.14,31.59l-4.24,4.25h-6.36l4.24-4.25H50.14z
	 M56.9,18.67l4.99,3.35l-6.23,1.25l-5-3.35L56.9,18.67z M44.61,21.11l5,3.35l-6.23,1.24l-5-3.35L44.61,21.11z M32.31,23.56
	l5.01,3.36l-6.24,1.24l-5-3.36L32.31,23.56z M31.23,31.59h6.36l-4.24,4.25H27L31.23,31.59z M52.06,35.84l4.23-4.25h6.37l-4.25,4.25
	H52.06z M37.2,56.71V43.48l10.76,6.61L37.2,56.71z"/>
</svg>
